<?xml version="1.0" encoding="UTF-8" standalone="no"?>
<svg
   xmlns:dc="http://purl.org/dc/elements/1.1/"
   xmlns:cc="http://creativecommons.org/ns#"
   xmlns:rdf="http://www.w3.org/1999/02/22-rdf-syntax-ns#"
   xmlns:svg="http://www.w3.org/2000/svg"
   xmlns="http://www.w3.org/2000/svg"
   xmlns:sodipodi="http://sodipodi.sourceforge.net/DTD/sodipodi-0.dtd"
   xmlns:inkscape="http://www.inkscape.org/namespaces/inkscape"
   version="1.1"
   id="Layer_1"
   x="0px"
   y="0px"
   viewBox="0 0 300 300"
   style="enable-background:new 0 0 300 300;"
   xml:space="preserve"
   width="512px"
   height="512px"
   class=""
   sodipodi:docname="btn-play.svg"
   inkscape:version="0.92.4 (f8dce91, 2019-08-02)"><metadata
   id="metadata3847"><rdf:RDF><cc:Work
       rdf:about=""><dc:format>image/svg+xml</dc:format><dc:type
         rdf:resource="http://purl.org/dc/dcmitype/StillImage" /></cc:Work></rdf:RDF></metadata><defs
   id="defs3845" /><sodipodi:namedview
   pagecolor="#ffffff"
   bordercolor="#666666"
   borderopacity="1"
   objecttolerance="10"
   gridtolerance="10"
   guidetolerance="10"
   inkscape:pageopacity="0"
   inkscape:pageshadow="2"
   inkscape:window-width="1316"
   inkscape:window-height="704"
   id="namedview3843"
   showgrid="false"
   inkscape:zoom="1.0273438"
   inkscape:cx="256"
   inkscape:cy="256"
   inkscape:window-x="50"
   inkscape:window-y="27"
   inkscape:window-maximized="1"
   inkscape:current-layer="Layer_1" /><g
   id="g3840"><g
     id="g3838">
	<g
   id="g3836">
		<path
   d="M150,0C67.157,0,0,67.162,0,150c0,82.841,67.157,150,150,150s150-67.159,150-150C300,67.162,232.843,0,150,0z     M205.846,158.266l-86.557,49.971c-1.32,0.765-2.799,1.144-4.272,1.144c-1.473,0-2.949-0.379-4.274-1.144    c-2.64-1.525-4.269-4.347-4.269-7.402V100.89c0-3.053,1.631-5.88,4.269-7.402c2.648-1.528,5.906-1.528,8.551,0l86.557,49.974    c2.645,1.53,4.274,4.352,4.269,7.402C210.12,153.916,208.494,156.741,205.846,158.266z"
   data-original="#000000"
   class="active-path"
   data-old_color="#000000"
   fill="#15A877"
   id="path3834" />
	</g>
</g></g> <path
   style="fill:#ffffff;stroke-width:0.97338402"
   d="m 188.93806,354.54929 c -1.71084,-1.04315 -3.90095,-3.10281 -4.86692,-4.577 -1.66075,-2.53452 -1.75631,-7.56443 -1.75631,-92.44647 0,-89.14472 0.0139,-89.78473 2.00691,-92.45427 3.55596,-4.76301 7.01285,-6.70245 11.93519,-6.69607 4.223,0.005 9.97226,3.13201 79.50277,43.23504 41.22281,23.77603 75.97774,44.14144 77.23316,45.25646 5.20879,4.62624 6.53444,12.18203 3.11982,17.7821 -2.18906,3.59014 2.61509,0.69676 -87.63048,52.77688 -61.84931,35.69283 -68.0035,39.02696 -72.03042,39.02363 -2.64553,-0.002 -5.64476,-0.76072 -7.51372,-1.9003 z"
   id="path3849"
   inkscape:connector-curvature="0"
   transform="scale(0.5859375)" /></svg>